<svg xmlns="http://www.w3.org/2000/svg" width="100" height="100"><path fill-rule="evenodd" fill="#FF9C00" d="M88.013 23.974c-2.722 0-5.234-.914-7.248-2.448L61.998 40.292A15.37 15.37 0 0 1 65.443 50c0 3.68-1.296 7.062-3.453 9.718.052.04.103.083.151.132l27.53 27.529a6.771 6.771 0 0 1 3.526-.986A6.81 6.81 0 0 1 100 93.196 6.811 6.811 0 0 1 93.197 100a6.811 6.811 0 0 1-6.804-6.804c0-1.29.361-2.497.987-3.526L59.85 62.14a1.568 1.568 0 0 1-.132-.151 15.416 15.416 0 0 1-4.806 2.648l2.148 9.664c3.683.08 6.655 3.099 6.655 6.8a6.811 6.811 0 0 1-6.804 6.804 6.811 6.811 0 0 1-6.803-6.804 6.811 6.811 0 0 1 3.789-6.097l-2.147-9.663a15.56 15.56 0 0 1-1.75.101c-5.275 0-9.939-2.66-12.726-6.707L16.668 69.897c.256.81.395 1.671.395 2.565 0 4.704-3.828 8.531-8.532 8.531C3.827 80.993 0 77.166 0 72.462c0-4.704 3.827-8.531 8.531-8.531a8.518 8.518 0 0 1 6.59 3.119l20.606-11.161A15.36 15.36 0 0 1 34.557 50a15.37 15.37 0 0 1 3.445-9.708l-8.666-8.666a6.763 6.763 0 0 1-3.526.987 6.811 6.811 0 0 1-6.804-6.803 6.811 6.811 0 0 1 6.804-6.804 6.811 6.811 0 0 1 6.803 6.804c0 1.29-.361 2.497-.987 3.525l8.666 8.667A15.37 15.37 0 0 1 50 34.557c3.675 0 7.053 1.293 9.708 3.444l18.766-18.766a11.92 11.92 0 0 1-2.448-7.248C76.026 5.377 81.403 0 88.013 0S100 5.377 100 11.987c0 6.609-5.377 11.987-11.987 11.987zm5.184 72.786a3.568 3.568 0 0 0 3.563-3.564 3.567 3.567 0 0 0-3.563-3.563 3.567 3.567 0 0 0-3.564 3.563 3.568 3.568 0 0 0 3.564 3.564zM8.531 67.17a5.298 5.298 0 0 0-5.291 5.292 5.298 5.298 0 0 0 5.291 5.292 5.298 5.298 0 0 0 5.292-5.292 5.298 5.298 0 0 0-5.292-5.292zM25.81 22.246a3.568 3.568 0 0 0-3.564 3.564 3.567 3.567 0 0 0 3.564 3.563 3.567 3.567 0 0 0 3.564-3.563 3.568 3.568 0 0 0-3.564-3.564zm27.538 58.855a3.567 3.567 0 0 0 3.563 3.564 3.568 3.568 0 0 0 3.564-3.564 3.567 3.567 0 0 0-3.564-3.563 3.567 3.567 0 0 0-3.563 3.563zM50 37.797c-6.729 0-12.203 5.474-12.203 12.203 0 6.729 5.474 12.203 12.203 12.203 6.729 0 12.203-5.474 12.203-12.203 0-6.729-5.474-12.203-12.203-12.203zM88.013 3.24c-4.823 0-8.747 3.923-8.747 8.747 0 4.823 3.924 8.747 8.747 8.747s8.747-3.924 8.747-8.747c0-4.824-3.924-8.747-8.747-8.747zm3.456 10.367a1.62 1.62 0 0 1-1.62-1.62 1.838 1.838 0 0 0-1.836-1.836 1.62 1.62 0 1 1 0-3.24 5.082 5.082 0 0 1 5.076 5.076 1.62 1.62 0 0 1-1.62 1.62zM56.911 51.62A1.62 1.62 0 0 1 55.292 50 5.298 5.298 0 0 0 50 44.708a1.62 1.62 0 1 1 0-3.24c4.704 0 8.531 3.828 8.531 8.532a1.62 1.62 0 0 1-1.62 1.62z"/></svg>