<svg xmlns="http://www.w3.org/2000/svg" width="98" height="100"><path fill-rule="evenodd" fill="#FF9C00" d="M97.999 73.753v17.349c0 2.886-2.881 5.17-8.564 6.789C84.659 99.251 78.343 100 71.652 100c-6.691 0-13.006-.749-17.783-2.109-5.682-1.619-8.564-3.903-8.564-6.789V73.741l.001-.01c.006-2.876 2.892-5.155 8.578-6.774 4.785-1.363 11.095-2.114 17.769-2.114 6.673 0 12.984.751 17.769 2.114C95.114 68.577 98 70.86 98 73.741l-.001.012zm-9.654-3.04C83.9 69.447 77.972 68.75 71.653 68.75c-6.319 0-12.248.697-16.693 1.963-4.738 1.349-5.735 2.799-5.735 3.028 0 .23.997 1.679 5.735 3.029 4.445 1.266 10.374 1.962 16.693 1.962 6.319 0 12.247-.696 16.692-1.962 4.72-1.344 5.727-2.787 5.735-3.025v-.004l.001-.002c-.006-.236-1.011-1.681-5.736-3.026zm5.736 17.191c-2.774 1.175-5.993 2.132-9.483 2.808a1.959 1.959 0 0 1-2.298-1.544 1.954 1.954 0 0 1 1.55-2.29c3.911-.758 7.419-1.881 10.23-3.268v-4.874c-1.255.665-2.807 1.262-4.658 1.79-4.785 1.362-11.096 2.113-17.769 2.113-6.674 0-12.984-.751-17.769-2.113-1.852-.528-3.404-1.125-4.659-1.79v12.366c0 .278 1.018 1.693 5.721 3.033 4.437 1.263 10.369 1.958 16.707 1.958 6.337 0 12.27-.695 16.706-1.958 4.703-1.34 5.721-2.755 5.722-3.033v-3.198zm-15.535 3.678l-.064.007a1.957 1.957 0 0 1-2.136-1.76 1.956 1.956 0 0 1 1.766-2.129l.044-.004a1.953 1.953 0 0 1 .39 3.886zM35.857 73.591c-.029.051-.061.1-.095.147-3.675 5.193-9.706 8.293-16.131 8.293-3.432 0-6.817-.904-9.789-2.614-9.398-5.408-12.63-17.428-7.204-26.795L15.04 31.213l.003-.006.004-.006L27.449 9.793C30.948 3.753 37.498 0 44.543 0c3.432 0 6.818.904 9.79 2.614 4.544 2.615 7.797 6.854 9.16 11.937 1.359 5.073.665 10.35-1.957 14.861L35.857 73.591zM6.032 54.575c-4.345 7.501-1.757 17.128 5.77 21.458a15.707 15.707 0 0 0 7.829 2.092c5.124 0 9.932-2.455 12.88-6.57l12.213-21.013-23.023-13.248v-.001l-.001-.001-4.242-2.44L6.032 54.575zM59.706 15.56c-1.092-4.074-3.696-7.471-7.332-9.563a15.727 15.727 0 0 0-7.831-2.091c-5.649 0-10.899 3.004-13.7 7.841L19.417 31.469l2.546 1.465 5.483-9.464a1.964 1.964 0 0 1 2.677-.715 1.95 1.95 0 0 1 .717 2.668l-5.483 9.464 21.332 12.275 11.456-19.709c2.096-3.606 2.65-7.83 1.561-11.893zm-25.954 4.836a1.96 1.96 0 0 1-2.677.714 1.95 1.95 0 0 1-.717-2.668l.032-.054a1.962 1.962 0 0 1 2.677-.715 1.95 1.95 0 0 1 .717 2.668l-.032.055z"/></svg>