<svg xmlns="http://www.w3.org/2000/svg" width="34" height="34"><path fill-rule="evenodd" fill="#FF9C00" d="M33.898 28.53a.53.53 0 0 1-.741.114l-8.286-6.07-.537.537-.859.857c-2.042 2.042-5.105 1.559-7.925-.157a16.234 16.234 0 0 1-2.998-2.375 16.276 16.276 0 0 1-2.377-2.996c-1.719-2.819-2.207-5.88-.177-7.908l1.411-1.41-5.708-7.785-1.558 1.545 1.322 1.804 1.586 2.162L8.637 9.01a.53.53 0 0 1-.855.627L6.197 7.473 4.611 5.311 3.382 3.637l-.258.256.001.002-.022.022C1.079 5.939.549 8.621 1.585 11.875c1.077 3.379 3.816 7.366 8.29 11.871l.181.182.001-.002c.305.306.557.555.753.744 4.345 4.211 8.207 6.79 11.483 7.792 3.155.965 5.76.442 7.715-1.512l.026-.026.063-.063.259-.267-1.673-1.224-2.164-1.585-2.164-1.585a.53.53 0 1 1 .627-.854l2.164 1.585 2.164 1.585 2.164 1.583c.015.011.023.028.036.04.006.005.014.003.019.008.007.007.004.018.011.025a.517.517 0 0 1 .142.331c.001.014-.001.025-.002.039a.509.509 0 0 1-.092.298c-.011.015-.028.023-.041.037-.005.006-.003.014-.008.02l-.682.703-.002.003-.066.065-.029.033c-2.252 2.251-5.215 2.862-8.775 1.773-3.439-1.051-7.447-3.715-11.915-8.044a65.072 65.072 0 0 1-.765-.752l.001-.001-.001-.001-.182-.183C4.528 19.866 1.704 15.735.575 12.195-.592 8.53.028 5.486 2.351 3.165l.022-.022.001.001.001-.001L5.39.152a.531.531 0 0 1 .8.063l6.32 8.616a.533.533 0 0 1-.027.722l-1.733 1.732c-1.615 1.614-1.143 4.186.331 6.604.596.978 1.36 1.933 2.224 2.797.864.863 1.82 1.627 2.798 2.221 2.418 1.472 4.993 1.937 6.62.311l.859-.858.858-.858.001.001a.532.532 0 0 1 .688-.053l8.655 6.339a.53.53 0 0 1 .114.741zM30.61 14.008a.53.53 0 0 1-.622-.42 12.092 12.092 0 0 0-1.204-3.352l-.015-.028a12.244 12.244 0 0 0-2.124-2.848l-.002-.002a12.18 12.18 0 0 0-6.232-3.34.53.53 0 1 1 .203-1.041c1.278.254 2.507.699 3.651 1.31 1.144.614 2.2 1.396 3.127 2.321l.002.003A13.384 13.384 0 0 1 29.7 9.704l.016.03a13.11 13.11 0 0 1 1.314 3.652.53.53 0 0 1-.42.622zm-9.96-7.766a10.093 10.093 0 0 1 4.502 2.609 10.143 10.143 0 0 1 2.611 4.499.531.531 0 0 1-1.027.274A8.998 8.998 0 0 0 24.4 9.603a9.04 9.04 0 0 0-1.864-1.436 8.902 8.902 0 0 0-2.159-.899.53.53 0 1 1 .273-1.026zm3.104 5.875c.244.362.457.752.632 1.163a.53.53 0 0 1-.976.415 5.949 5.949 0 0 0-1.251-1.852l-.002.001a5.805 5.805 0 0 0-.868-.716 5.74 5.74 0 0 0-.98-.536.53.53 0 0 1 .411-.975 6.88 6.88 0 0 1 2.19 1.475l-.001.002.001.001a6.8 6.8 0 0 1 .844 1.022z"/></svg>