<svg xmlns="http://www.w3.org/2000/svg" width="109" height="109"><defs><filter filterUnits="userSpaceOnUse" id="a" x="0" y="0" width="109" height="109"><feOffset in="SourceAlpha" dy="10"/><feGaussianBlur result="blurOut" stdDeviation="5.477"/><feFlood flood-color="#000" result="floodOut"/><feComposite operator="atop" in="floodOut" in2="blurOut"/><feComponentTransfer><feFuncA type="linear" slope=".2"/></feComponentTransfer><feMerge><feMergeNode/><feMergeNode in="SourceGraphic"/></feMerge></filter></defs><path fill-rule="evenodd" fill="#FFF" d="M78.386 65.448l-12.02-12.02a20.996 20.996 0 0 0 4.776-13.357C71.142 28.438 61.703 19 50.071 19 38.428 19 29 28.438 29 40.071c0 11.632 9.428 21.07 21.071 21.07 5.071 0 9.714-1.785 13.346-4.765l12.021 12.01a2.081 2.081 0 0 0 2.948 0 2.067 2.067 0 0 0 0-2.938zm-28.315-8.5c-9.316 0-16.887-7.572-16.887-16.877 0-9.306 7.571-16.888 16.887-16.888 9.306 0 16.887 7.582 16.887 16.888 0 9.305-7.581 16.877-16.887 16.877z" filter="url(#a)"/></svg>