<svg xmlns="http://www.w3.org/2000/svg" width="96" height="100"><path fill-rule="evenodd" fill="#FF9C00" d="M77.794 78.125v-12.5h2.934v12.5h-2.934zm-10.957 0v-2.93h3.131v2.93h-3.131zm-46.956-46.68v2.93h-3.13v-2.93h3.13zm67.108 47.636L96 88.026l-2.026 2.072-8.693-8.629-10.813 5.374V100h-2.935V86.843l-12.521-6.25V70.312h2.934v8.469l11.055 5.518 11.054-5.518V64.967l-11.012-5.518-12.478 6.25-12.534-6.25-12.546 6.25-14.038-6.982V43.092l-10.728-5.373-5.477 5.504-2.099-2.072 5.782-5.821V20.919L0 11.973l2.112-2.072 8.619 8.629 10.715-5.373V0h2.935v13.157l12.522 6.25v10.28h-2.935v-8.469L22.914 15.7l-11.055 5.518v13.814l11.097 5.518 12.565-6.25 12.509 6.25 12.498-6.25 13.94 6.982v15.625l10.801 5.373 5.55-5.503 2.05 2.071-5.88 5.821v14.412zM46.49 43.093l-11.055-5.518-11.054 5.518v13.814l11.054 5.517 11.055-5.517V43.093zm25.043 0l-11.054-5.518-11.055 5.518v13.814l11.055 5.517 11.054-5.517V43.093zm-43.826.657h2.935v12.5h-2.935v-12.5z"/></svg>