<svg xmlns="http://www.w3.org/2000/svg" width="34" height="34"><path fill-rule="evenodd" fill="#FF9C00" d="M34.001 34H-.002l6.089-13.033h4.176l-1.706-2.511C5.371 14.126 5.834 6.981 9.56 3.183 11.574 1.13 14.251 0 17.098 0c2.848 0 5.525 1.13 7.538 3.183 3.726 3.798 4.189 10.943.99 15.29l-1.694 2.493h3.981L34.001 34zm-9.276-16.19c2.903-3.945 2.489-10.399-.874-13.827-1.804-1.838-4.202-2.851-6.752-2.851-2.551 0-4.949 1.013-6.752 2.851-3.363 3.428-3.777 9.881-.887 13.81l2.155 3.173 5.483 8.071 7.627-11.227zm-1.562 4.29l-6.065 8.929-6.065-8.929H6.789l-5.03 10.766H32.24L27.211 22.1h-4.048zm-9.858-11.334c0-2.187 1.746-3.967 3.892-3.967 2.145 0 3.891 1.78 3.891 3.967 0 2.187-1.746 3.967-3.891 3.967-2.146 0-3.892-1.78-3.892-3.967zm3.892 2.833c1.532 0 2.779-1.271 2.779-2.833 0-1.562-1.247-2.833-2.779-2.833-1.533 0-2.78 1.271-2.78 2.833 0 1.562 1.247 2.833 2.78 2.833z"/></svg>