<svg xmlns="http://www.w3.org/2000/svg" width="25" height="25"><path fill-rule="evenodd" fill="#FFF" d="M12.499 25.002c-6.894 0-12.503-5.609-12.503-12.503S5.605-.004 12.499-.004s12.503 5.609 12.503 12.503-5.609 12.503-12.503 12.503zm0-24.158C6.072.844.844 6.072.844 12.499c0 6.426 5.228 11.655 11.655 11.655 6.426 0 11.655-5.229 11.655-11.655 0-6.427-5.229-11.655-11.655-11.655zm-1.972 11.834l3.841 3.846a.424.424 0 1 1-.6.6l-4.14-4.145a.424.424 0 0 1 0-.6l4.14-4.145a.422.422 0 0 1 .6-.001.424.424 0 0 1 0 .6l-3.841 3.845z"/></svg>