<svg xmlns="http://www.w3.org/2000/svg" width="25" height="25"><path fill-rule="evenodd" fill="#333" d="M12.499 25.002c-6.894 0-12.503-5.609-12.503-12.504 0-6.893 5.609-12.502 12.503-12.502s12.503 5.609 12.503 12.502c0 6.895-5.609 12.504-12.503 12.504zm0-24.158C6.072.844.844 6.072.844 12.498c0 6.427 5.228 11.656 11.655 11.656 6.426 0 11.655-5.229 11.655-11.656 0-6.426-5.229-11.654-11.655-11.654zm-1.972 11.834l3.842 3.846a.424.424 0 1 1-.6.6l-4.141-4.145a.424.424 0 0 1 0-.6l4.141-4.145a.422.422 0 0 1 .6-.001.426.426 0 0 1 0 .6l-3.842 3.845z"/></svg>