<svg xmlns="http://www.w3.org/2000/svg" width="68" height="20"><path fill-rule="evenodd" fill="#333" d="M67.996 10.249v1.627h-5.901V3.194h5.901v1.627H63.87v1.835h4.038v1.628H63.87v1.965h4.126zm-12.373 1.627l-3.225-8.682h2.025l2.313 6.678 2.3-6.678h2.026l-3.213 8.682h-2.226zm-4.808 0l-.512-1.47h-3.576l-.525 1.47h-2.026l3.226-8.682h2.225l3.213 8.682h-2.025zm-2.3-6.834l-1.301 3.736h2.601l-1.3-3.736zm-8.262 6.834L38.79 5.915l-1.45 5.961h-1.888l-2.388-8.682h1.988l1.463 6.274 1.588-6.274h1.387l1.576 6.274 1.45-6.274h2l-2.375 8.682h-1.888zM19.999 8.539L24.364.254h4.754l-6.804 12.671-2.315-4.386zM16.12.218h5.388l-2.694 4.856L16.12.218zm2.459 19.79L7.82.01h4.755l8.319 15.613-2.315 4.385zm-7.826 0L-.005.01h4.754l8.32 15.613-2.316 4.385zm24.025-1.714c.426 0 .634-.206.634-.422 0-.672-2.1-.211-2.1-1.64 0-.633.525-1.157 1.384-1.157.58 0 1.061.183 1.422.53l-.432.593a1.534 1.534 0 0 0-1.062-.416c-.333 0-.519.154-.519.381 0 .604 2.095.2 2.095 1.618 0 .695-.476 1.219-1.461 1.219-.7 0-1.203-.245-1.542-.604l.421-.615a1.57 1.57 0 0 0 1.16.513zm4.674-2.45h-1.061v3.088h-.783v-3.088h-1.066v-.712h2.91v.712zm1.397 1.544c0 .53.296.894.859.894.564 0 .854-.364.854-.894v-2.256h.793v2.279c0 .945-.536 1.589-1.647 1.589-1.11 0-1.646-.649-1.646-1.584v-2.284h.787v2.256zm6.71-.353c0 1.145-.793 1.897-1.936 1.897h-1.439v-3.8h1.439c1.143 0 1.936.758 1.936 1.903zm-2.598 1.185h.662c.722 0 1.143-.542 1.143-1.185 0-.672-.394-1.191-1.143-1.191h-.662v2.376zm4.04.712h-.777v-3.8h.777v3.8zm2.561-3.862c1.105 0 1.91.82 1.91 1.965S52.667 19 51.562 19c-1.099 0-1.903-.82-1.903-1.965s.804-1.965 1.903-1.965zm0 3.212c.673 0 1.111-.541 1.111-1.247 0-.712-.438-1.248-1.111-1.248s-1.105.536-1.105 1.248c0 .706.432 1.247 1.105 1.247z"/></svg>