<svg 
 xmlns="http://www.w3.org/2000/svg"
 xmlns:xlink="http://www.w3.org/1999/xlink"
 width="68px" height="20px">
<path fill-rule="evenodd"  fill="rgb(51, 51, 51)"
 d="M67.996,10.249 L67.996,11.876 L62.095,11.876 L62.095,3.194 L67.996,3.194 L67.996,4.821 L63.870,4.821 L63.870,6.656 L67.908,6.656 L67.908,8.284 L63.870,8.284 L63.870,10.249 L67.996,10.249 ZM55.623,11.876 L52.398,3.194 L54.423,3.194 L56.736,9.872 L59.036,3.194 L61.062,3.194 L57.849,11.876 L55.623,11.876 ZM50.815,11.876 L50.303,10.406 L46.727,10.406 L46.202,11.876 L44.176,11.876 L47.402,3.194 L49.627,3.194 L52.840,11.876 L50.815,11.876 ZM48.515,5.042 L47.214,8.778 L49.815,8.778 L48.515,5.042 ZM40.253,11.876 L38.790,5.915 L37.340,11.876 L35.452,11.876 L33.064,3.194 L35.052,3.194 L36.515,9.468 L38.103,3.194 L39.490,3.194 L41.066,9.468 L42.516,3.194 L44.516,3.194 L42.141,11.876 L40.253,11.876 ZM19.999,8.539 L24.364,0.254 L29.118,0.254 L22.314,12.925 L19.999,8.539 ZM16.120,0.218 L21.508,0.218 L18.814,5.074 L16.120,0.218 ZM18.579,20.008 L7.820,0.010 L12.575,0.010 L20.894,15.623 L18.579,20.008 ZM10.753,20.008 L-0.005,0.010 L4.749,0.010 L13.069,15.623 L10.753,20.008 ZM34.778,18.294 C35.204,18.294 35.412,18.088 35.412,17.872 C35.412,17.200 33.312,17.661 33.312,16.232 C33.312,15.599 33.837,15.075 34.696,15.075 C35.276,15.075 35.757,15.258 36.118,15.605 L35.686,16.198 C35.390,15.913 34.996,15.782 34.624,15.782 C34.291,15.782 34.105,15.936 34.105,16.163 C34.105,16.767 36.200,16.363 36.200,17.781 C36.200,18.476 35.724,19.000 34.739,19.000 C34.039,19.000 33.536,18.755 33.197,18.396 L33.618,17.781 C33.875,18.060 34.274,18.294 34.778,18.294 ZM39.452,15.844 L38.391,15.844 L38.391,18.932 L37.608,18.932 L37.608,15.844 L36.542,15.844 L36.542,15.132 L39.452,15.132 L39.452,15.844 ZM40.849,17.388 C40.849,17.918 41.145,18.282 41.708,18.282 C42.272,18.282 42.562,17.918 42.562,17.388 L42.562,15.132 L43.355,15.132 L43.355,17.411 C43.355,18.356 42.819,19.000 41.708,19.000 C40.598,19.000 40.062,18.351 40.062,17.416 L40.062,15.132 L40.849,15.132 L40.849,17.388 ZM47.559,17.035 C47.559,18.180 46.766,18.932 45.623,18.932 L44.184,18.932 L44.184,15.132 L45.623,15.132 C46.766,15.132 47.559,15.890 47.559,17.035 ZM44.961,18.220 L45.623,18.220 C46.345,18.220 46.766,17.678 46.766,17.035 C46.766,16.363 46.372,15.844 45.623,15.844 L44.961,15.844 L44.961,18.220 ZM49.001,18.932 L48.224,18.932 L48.224,15.132 L49.001,15.132 L49.001,18.932 ZM51.562,15.070 C52.667,15.070 53.472,15.890 53.472,17.035 C53.472,18.180 52.667,19.000 51.562,19.000 C50.463,19.000 49.659,18.180 49.659,17.035 C49.659,15.890 50.463,15.070 51.562,15.070 ZM51.562,18.282 C52.235,18.282 52.673,17.741 52.673,17.035 C52.673,16.323 52.235,15.787 51.562,15.787 C50.889,15.787 50.457,16.323 50.457,17.035 C50.457,17.741 50.889,18.282 51.562,18.282 Z"/>
</svg>