<svg 
 xmlns="http://www.w3.org/2000/svg"
 xmlns:xlink="http://www.w3.org/1999/xlink"
 width="98px" height="100px">
<path fill-rule="evenodd"  fill="rgb(255, 156, 0)"
 d="M97.999,73.753 L97.999,91.102 C97.999,93.988 95.118,96.272 89.435,97.891 C84.659,99.251 78.343,100.000 71.652,100.000 C64.961,100.000 58.646,99.251 53.869,97.891 C48.187,96.272 45.305,93.988 45.305,91.102 L45.305,73.741 C45.305,73.738 45.306,73.735 45.306,73.731 C45.312,70.855 48.198,68.576 53.884,66.957 C58.669,65.594 64.979,64.843 71.653,64.843 C78.326,64.843 84.637,65.594 89.422,66.957 C95.114,68.577 98.000,70.860 98.000,73.741 C98.000,73.745 98.000,73.749 97.999,73.753 ZM88.345,70.713 C83.900,69.447 77.972,68.750 71.653,68.750 C65.334,68.750 59.405,69.447 54.960,70.713 C50.222,72.062 49.225,73.512 49.225,73.741 C49.225,73.971 50.222,75.420 54.960,76.770 C59.405,78.036 65.334,78.732 71.653,78.732 C77.972,78.732 83.900,78.036 88.345,76.770 C93.065,75.426 94.072,73.983 94.080,73.745 L94.080,73.741 C94.080,73.741 94.081,73.740 94.081,73.739 C94.075,73.503 93.070,72.058 88.345,70.713 ZM94.081,87.904 C91.307,89.079 88.088,90.036 84.598,90.712 C84.472,90.737 84.346,90.749 84.222,90.749 C83.302,90.749 82.482,90.101 82.300,89.168 C82.094,88.109 82.787,87.084 83.850,86.878 C87.761,86.120 91.269,84.997 94.080,83.610 L94.080,78.736 C92.825,79.401 91.273,79.998 89.422,80.526 C84.637,81.888 78.326,82.639 71.653,82.639 C64.979,82.639 58.669,81.888 53.884,80.526 C52.032,79.998 50.480,79.401 49.225,78.736 L49.225,91.102 C49.225,91.380 50.243,92.795 54.946,94.135 C59.383,95.398 65.315,96.093 71.653,96.093 C77.990,96.093 83.923,95.398 88.359,94.135 C93.062,92.795 94.080,91.380 94.081,91.102 L94.081,91.102 L94.081,87.904 ZM78.546,91.582 L78.482,91.589 C78.419,91.595 78.356,91.597 78.295,91.597 C77.296,91.597 76.442,90.840 76.346,89.829 C76.244,88.755 77.035,87.802 78.112,87.700 L78.156,87.696 C79.236,87.589 80.194,88.372 80.301,89.445 C80.409,90.518 79.623,91.476 78.546,91.582 ZM35.857,73.591 C35.828,73.642 35.796,73.691 35.762,73.738 C32.087,78.931 26.056,82.031 19.631,82.031 C16.199,82.031 12.814,81.127 9.842,79.417 C0.444,74.009 -2.788,61.989 2.638,52.622 L15.040,31.213 C15.041,31.211 15.042,31.209 15.043,31.207 C15.044,31.205 15.046,31.203 15.047,31.201 L27.449,9.793 C30.948,3.753 37.498,-0.000 44.543,-0.000 C47.975,-0.000 51.361,0.904 54.333,2.614 C58.877,5.229 62.130,9.468 63.493,14.551 C64.852,19.624 64.158,24.901 61.536,29.412 L35.857,73.591 ZM6.032,54.575 C1.687,62.076 4.275,71.703 11.802,76.033 C14.179,77.402 16.886,78.125 19.631,78.125 C24.755,78.125 29.563,75.670 32.511,71.555 L44.724,50.542 L21.701,37.294 C21.701,37.293 21.701,37.293 21.701,37.293 C21.700,37.293 21.700,37.293 21.700,37.292 L17.458,34.852 L6.032,54.575 ZM59.706,15.560 C58.614,11.486 56.010,8.089 52.374,5.997 C49.996,4.629 47.288,3.906 44.543,3.906 C38.894,3.906 33.644,6.910 30.843,11.747 L19.417,31.469 L21.963,32.934 L27.446,23.470 C27.987,22.536 29.185,22.216 30.123,22.755 C31.060,23.295 31.381,24.489 30.840,25.423 L25.357,34.887 L46.689,47.162 L58.145,27.453 C60.241,23.847 60.795,19.623 59.706,15.560 ZM33.752,20.396 C33.389,21.022 32.731,21.372 32.053,21.372 C31.721,21.372 31.384,21.288 31.075,21.110 C30.138,20.571 29.817,19.377 30.358,18.442 L30.390,18.388 C30.931,17.453 32.129,17.133 33.067,17.673 C34.004,18.212 34.325,19.407 33.784,20.341 L33.752,20.396 Z"/>
</svg>