<svg 
 xmlns="http://www.w3.org/2000/svg"
 xmlns:xlink="http://www.w3.org/1999/xlink"
 width="100px" height="100px">
<path fill-rule="evenodd"  fill="rgb(255, 156, 0)"
 d="M88.013,23.974 C85.291,23.974 82.779,23.060 80.765,21.526 L61.998,40.292 C64.150,42.947 65.443,46.325 65.443,50.000 C65.443,53.680 64.147,57.062 61.990,59.718 C62.042,59.758 62.093,59.801 62.141,59.850 L89.671,87.379 C90.700,86.754 91.907,86.393 93.197,86.393 C96.948,86.393 100.000,89.445 100.000,93.196 C100.000,96.948 96.948,100.000 93.197,100.000 C89.445,100.000 86.393,96.948 86.393,93.196 C86.393,91.906 86.754,90.699 87.380,89.670 L59.850,62.140 C59.802,62.092 59.759,62.042 59.718,61.989 C58.302,63.140 56.677,64.043 54.912,64.637 L57.060,74.301 C60.743,74.381 63.715,77.400 63.715,81.101 C63.715,84.853 60.663,87.905 56.911,87.905 C53.160,87.905 50.108,84.853 50.108,81.101 C50.108,78.432 51.654,76.118 53.897,75.004 L51.750,65.341 C51.175,65.406 50.592,65.442 50.000,65.442 C44.725,65.442 40.061,62.782 37.274,58.735 L16.668,69.897 C16.924,70.707 17.063,71.568 17.063,72.462 C17.063,77.166 13.235,80.993 8.531,80.993 C3.827,80.993 -0.000,77.166 -0.000,72.462 C-0.000,67.758 3.827,63.931 8.531,63.931 C11.183,63.931 13.555,65.147 15.121,67.050 L35.727,55.889 C34.975,54.073 34.557,52.084 34.557,50.000 C34.557,46.325 35.850,42.947 38.002,40.292 L29.336,31.626 C28.307,32.252 27.100,32.613 25.810,32.613 C22.058,32.613 19.006,29.561 19.006,25.810 C19.006,22.058 22.058,19.006 25.810,19.006 C29.561,19.006 32.613,22.058 32.613,25.810 C32.613,27.100 32.252,28.307 31.626,29.335 L40.292,38.002 C42.947,35.850 46.325,34.557 50.000,34.557 C53.675,34.557 57.053,35.850 59.708,38.001 L78.474,19.235 C76.939,17.220 76.026,14.709 76.026,11.987 C76.026,5.377 81.403,-0.000 88.013,-0.000 C94.623,-0.000 100.000,5.377 100.000,11.987 C100.000,18.596 94.623,23.974 88.013,23.974 ZM93.197,96.760 C95.161,96.760 96.760,95.161 96.760,93.196 C96.760,91.231 95.161,89.633 93.197,89.633 C91.231,89.633 89.633,91.231 89.633,93.196 C89.633,95.161 91.231,96.760 93.197,96.760 ZM8.531,67.170 C5.614,67.170 3.240,69.544 3.240,72.462 C3.240,75.380 5.614,77.754 8.531,77.754 C11.449,77.754 13.823,75.380 13.823,72.462 C13.823,69.544 11.449,67.170 8.531,67.170 ZM25.810,22.246 C23.845,22.246 22.246,23.844 22.246,25.810 C22.246,27.775 23.845,29.373 25.810,29.373 C27.775,29.373 29.374,27.775 29.374,25.810 C29.374,23.844 27.775,22.246 25.810,22.246 ZM53.348,81.101 C53.348,83.066 54.946,84.665 56.911,84.665 C58.876,84.665 60.475,83.066 60.475,81.101 C60.475,79.136 58.876,77.538 56.911,77.538 C54.946,77.538 53.348,79.136 53.348,81.101 ZM50.000,37.797 C43.271,37.797 37.797,43.271 37.797,50.000 C37.797,56.729 43.271,62.203 50.000,62.203 C56.729,62.203 62.203,56.729 62.203,50.000 C62.203,43.271 56.729,37.797 50.000,37.797 ZM88.013,3.240 C83.190,3.240 79.266,7.163 79.266,11.987 C79.266,16.810 83.190,20.734 88.013,20.734 C92.836,20.734 96.760,16.810 96.760,11.987 C96.760,7.163 92.836,3.240 88.013,3.240 ZM91.469,13.607 C90.574,13.607 89.849,12.881 89.849,11.987 C89.849,10.974 89.025,10.151 88.013,10.151 C87.118,10.151 86.393,9.426 86.393,8.531 C86.393,7.637 87.118,6.911 88.013,6.911 C90.812,6.911 93.089,9.188 93.089,11.987 C93.089,12.881 92.363,13.607 91.469,13.607 ZM56.911,51.620 C56.017,51.620 55.292,50.894 55.292,50.000 C55.292,47.082 52.918,44.708 50.000,44.708 C49.105,44.708 48.380,43.983 48.380,43.088 C48.380,42.194 49.105,41.468 50.000,41.468 C54.704,41.468 58.531,45.296 58.531,50.000 C58.531,50.894 57.806,51.620 56.911,51.620 Z"/>
</svg>