<svg 
 xmlns="http://www.w3.org/2000/svg"
 xmlns:xlink="http://www.w3.org/1999/xlink"
 width="96px" height="100px">
<path fill-rule="evenodd"  fill="rgb(255, 156, 0)"
 d="M77.794,78.125 L77.794,65.625 L80.728,65.625 L80.728,78.125 L77.794,78.125 ZM66.837,78.125 L66.837,75.195 L69.968,75.195 L69.968,78.125 L66.837,78.125 ZM19.881,31.445 L19.881,34.375 L16.751,34.375 L16.751,31.445 L19.881,31.445 ZM86.989,79.081 L96.000,88.026 L93.974,90.098 L85.281,81.469 L74.468,86.843 L74.468,100.000 L71.533,100.000 L71.533,86.843 L59.012,80.593 L59.012,70.312 L61.946,70.312 L61.946,78.781 L73.001,84.299 L84.055,78.781 L84.055,64.967 L73.043,59.449 L60.565,65.699 L48.031,59.449 L35.485,65.699 L21.447,58.717 L21.447,43.092 L10.719,37.719 L5.242,43.223 L3.143,41.151 L8.925,35.330 L8.925,20.919 L0.000,11.973 L2.112,9.901 L10.731,18.530 L21.446,13.157 L21.446,-0.000 L24.381,-0.000 L24.381,13.157 L36.903,19.407 L36.903,29.687 L33.968,29.687 L33.968,21.218 L22.914,15.700 L11.859,21.218 L11.859,35.032 L22.956,40.550 L35.521,34.300 L48.030,40.550 L60.528,34.300 L74.468,41.282 L74.468,56.907 L85.269,62.280 L90.819,56.777 L92.869,58.848 L86.989,64.669 L86.989,79.081 ZM46.490,43.093 L35.435,37.575 L24.381,43.093 L24.381,56.907 L35.435,62.424 L46.490,56.907 L46.490,43.093 ZM71.533,43.093 L60.479,37.575 L49.424,43.093 L49.424,56.907 L60.479,62.424 L71.533,56.907 L71.533,43.093 ZM27.707,43.750 L30.642,43.750 L30.642,56.250 L27.707,56.250 L27.707,43.750 Z"/>
</svg>