<svg 
 xmlns="http://www.w3.org/2000/svg"
 xmlns:xlink="http://www.w3.org/1999/xlink"
 width="25px" height="25px">
<path fill-rule="evenodd"  fill="rgb(255, 255, 255)"
 d="M12.499,25.002 C5.605,25.002 -0.004,19.393 -0.004,12.499 C-0.004,5.605 5.605,-0.004 12.499,-0.004 C19.393,-0.004 25.002,5.605 25.002,12.499 C25.002,19.393 19.393,25.002 12.499,25.002 ZM12.499,0.844 C6.072,0.844 0.844,6.072 0.844,12.499 C0.844,18.925 6.072,24.154 12.499,24.154 C18.925,24.154 24.154,18.925 24.154,12.499 C24.154,6.072 18.925,0.844 12.499,0.844 ZM10.527,12.678 L14.368,16.524 C14.534,16.690 14.534,16.959 14.368,17.124 C14.203,17.290 13.934,17.290 13.768,17.124 L9.628,12.979 C9.462,12.813 9.462,12.544 9.628,12.379 L13.768,8.234 C13.852,8.150 13.960,8.109 14.069,8.109 C14.177,8.109 14.286,8.150 14.368,8.233 C14.534,8.398 14.534,8.667 14.368,8.833 L10.527,12.678 Z"/>
</svg>