<svg 
 xmlns="http://www.w3.org/2000/svg"
 xmlns:xlink="http://www.w3.org/1999/xlink"
 width="34px" height="34px">
<path fill-rule="evenodd"  fill="rgb(255, 156, 0)"
 d="M34.001,34.000 L-0.002,34.000 L6.087,20.967 L10.263,20.967 L8.557,18.456 C5.371,14.126 5.834,6.981 9.560,3.183 C11.574,1.130 14.251,-0.000 17.098,-0.000 C19.946,-0.000 22.623,1.130 24.636,3.183 C28.362,6.981 28.825,14.126 25.626,18.473 L23.932,20.966 L27.913,20.966 L34.001,34.000 ZM24.725,17.810 C27.628,13.865 27.214,7.411 23.851,3.983 C22.047,2.145 19.649,1.132 17.099,1.132 C14.548,1.132 12.150,2.145 10.347,3.983 C6.984,7.411 6.570,13.864 9.460,17.793 L11.615,20.966 L17.098,29.037 L24.725,17.810 ZM23.163,22.100 L17.098,31.029 L11.033,22.100 L6.789,22.100 L1.759,32.866 L32.240,32.866 L27.211,22.100 L23.163,22.100 ZM13.305,10.766 C13.305,8.579 15.051,6.799 17.197,6.799 C19.342,6.799 21.088,8.579 21.088,10.766 C21.088,12.953 19.342,14.733 17.197,14.733 C15.051,14.733 13.305,12.953 13.305,10.766 ZM17.197,13.599 C18.729,13.599 19.976,12.328 19.976,10.766 C19.976,9.204 18.729,7.933 17.197,7.933 C15.664,7.933 14.417,9.204 14.417,10.766 C14.417,12.328 15.664,13.599 17.197,13.599 Z"/>
</svg>