<svg 
 xmlns="http://www.w3.org/2000/svg"
 xmlns:xlink="http://www.w3.org/1999/xlink"
 width="34px" height="34px">
<path fill-rule="evenodd"  fill="rgb(255, 156, 0)"
 d="M33.898,28.530 C33.726,28.766 33.393,28.817 33.157,28.644 L24.871,22.574 L24.334,23.111 L23.475,23.968 C21.433,26.010 18.370,25.527 15.550,23.811 C14.492,23.168 13.468,22.351 12.552,21.436 C11.637,20.521 10.819,19.497 10.175,18.440 C8.456,15.621 7.968,12.560 9.998,10.532 L11.409,9.122 L5.701,1.337 L4.143,2.882 L5.465,4.686 L7.051,6.848 L8.637,9.010 C8.810,9.246 8.759,9.578 8.523,9.751 C8.287,9.924 7.955,9.872 7.782,9.637 L6.197,7.473 L4.611,5.311 L3.382,3.637 L3.124,3.893 L3.125,3.895 L3.103,3.917 C1.079,5.939 0.549,8.621 1.585,11.875 C2.662,15.254 5.401,19.241 9.875,23.746 L10.056,23.928 L10.057,23.926 C10.362,24.232 10.614,24.481 10.810,24.670 C15.155,28.881 19.017,31.460 22.293,32.462 C25.448,33.427 28.053,32.904 30.008,30.950 L30.034,30.924 L30.097,30.861 L30.356,30.594 L28.683,29.370 L26.519,27.785 L24.355,26.200 C24.119,26.027 24.068,25.695 24.241,25.459 C24.413,25.224 24.746,25.173 24.982,25.346 L27.146,26.931 L29.310,28.516 L31.474,30.099 C31.489,30.110 31.497,30.127 31.510,30.139 C31.516,30.144 31.524,30.142 31.529,30.147 C31.536,30.154 31.533,30.165 31.540,30.172 C31.627,30.265 31.676,30.380 31.682,30.503 C31.683,30.517 31.681,30.528 31.680,30.542 C31.678,30.646 31.654,30.750 31.588,30.840 C31.577,30.855 31.560,30.863 31.547,30.877 C31.542,30.883 31.544,30.891 31.539,30.897 L30.857,31.600 L30.855,31.603 L30.789,31.668 L30.760,31.701 C28.508,33.952 25.545,34.563 21.985,33.474 C18.546,32.423 14.538,29.759 10.070,25.430 C9.762,25.132 9.506,24.879 9.305,24.678 L9.306,24.677 L9.305,24.676 L9.123,24.493 C4.528,19.866 1.704,15.735 0.575,12.195 C-0.592,8.530 0.028,5.486 2.351,3.165 L2.373,3.143 L2.374,3.144 L2.375,3.143 L5.390,0.152 C5.408,0.134 5.428,0.117 5.449,0.101 C5.685,-0.071 6.018,-0.021 6.190,0.215 L12.510,8.831 C12.689,9.039 12.680,9.356 12.483,9.553 L10.750,11.285 C9.135,12.899 9.607,15.471 11.081,17.889 C11.677,18.867 12.441,19.822 13.305,20.686 C14.169,21.549 15.125,22.313 16.103,22.907 C18.521,24.379 21.096,24.844 22.723,23.218 L23.582,22.360 L24.440,21.502 L24.441,21.503 C24.623,21.322 24.915,21.294 25.129,21.450 L33.784,27.789 C34.020,27.962 34.071,28.294 33.898,28.530 ZM30.610,14.008 C30.322,14.063 30.043,13.876 29.988,13.588 C29.754,12.413 29.346,11.284 28.784,10.236 L28.769,10.208 C28.209,9.170 27.495,8.209 26.645,7.360 L26.643,7.358 C25.787,6.503 24.815,5.783 23.767,5.222 C22.720,4.662 21.588,4.253 20.411,4.018 C20.123,3.963 19.936,3.683 19.991,3.397 C20.048,3.109 20.327,2.922 20.614,2.977 C21.892,3.231 23.121,3.676 24.265,4.287 C25.409,4.901 26.465,5.683 27.392,6.608 L27.394,6.611 C28.312,7.529 29.088,8.573 29.700,9.704 L29.716,9.734 C30.331,10.877 30.775,12.106 31.030,13.386 C31.085,13.674 30.898,13.953 30.610,14.008 ZM20.650,6.242 C21.498,6.471 22.311,6.812 23.067,7.249 C23.829,7.691 24.531,8.230 25.152,8.851 C25.773,9.472 26.313,10.174 26.754,10.935 C27.192,11.690 27.533,12.503 27.763,13.350 C27.838,13.634 27.670,13.925 27.386,14.000 C27.102,14.075 26.811,13.907 26.736,13.624 C26.531,12.866 26.226,12.140 25.835,11.465 C25.445,10.791 24.961,10.164 24.400,9.603 C23.839,9.041 23.211,8.558 22.536,8.167 C21.863,7.776 21.136,7.472 20.377,7.268 C20.093,7.193 19.925,6.902 20.000,6.619 C20.075,6.335 20.367,6.167 20.650,6.242 ZM23.754,12.117 C23.998,12.479 24.211,12.869 24.386,13.280 C24.500,13.549 24.375,13.861 24.106,13.975 C23.836,14.089 23.524,13.963 23.410,13.695 C23.264,13.351 23.083,13.020 22.874,12.711 C22.662,12.397 22.421,12.106 22.159,11.843 L22.157,11.844 C21.890,11.577 21.599,11.336 21.289,11.128 C20.977,10.916 20.648,10.736 20.309,10.592 C20.040,10.479 19.914,10.168 20.027,9.899 C20.140,9.630 20.451,9.504 20.720,9.617 C21.134,9.793 21.525,10.005 21.884,10.248 C22.256,10.498 22.600,10.783 22.910,11.092 L22.909,11.094 L22.910,11.095 C23.224,11.408 23.509,11.752 23.754,12.117 Z"/>
</svg>